<svg xmlns="http://www.w3.org/2000/svg" viewBox="0 0 57 57" preserveAspectRatio="xMidYMid meet">
    <g transform="translate(0.000000,57.000000) scale(0.100000,-0.100000)" fill="currentColor" stroke-width="12"
        stroke="currentColor">
        <path
            d="M180 495 c-7 -8 -22 -15 -35 -15 -23 0 -55 -28 -55 -48 0 -6 -12 -23 -26 -37 -18 -18 -24 -33 -21 -48 3 -12 -1 -31 -9 -41 -18 -26 -18 -70 1 -86 8 -7 15 -21 15 -31 0 -36 23 -68 59 -83 21 -8 43 -21 50 -30 19 -23 74 -20 97 5 17 19 19 41 22 204 3 174 2 185 -17 204 -25 25 -63 27 -81 6z m54 -11 c14 -5 16 -32 16 -193 0 -196 -3 -211 -45 -211 -39 0 -47 20 -20 52 14 16 25 40 25 52 0 34 -37 76 -66 76 -31 0 -31 -18 0 -26 30 -7 50 -48 36 -73 -28 -54 -118 -28 -103 29 3 10 -4 27 -16 39 -26 26 -27 46 -2 68 14 12 18 24 14 48 -7 41 12 53 40 27 12 -11 32 -23 44 -26 12 -4 31 -18 42 -32 33 -41 55 -29 25 14 -15 21 -15 25 1 42 22 25 0 38 -25 15 -26 -24 -68 -12 -81 21 -12 32 3 54 36 54 12 0 28 7 35 15 14 17 21 18 44 9z" />
        <path
            d="M309 489 c-19 -19 -20 -30 -17 -204 3 -163 5 -185 22 -204 23 -25 78 -28 97 -5 7 9 29 22 50 30 36 15 59 47 59 83 0 10 7 24 15 31 19 16 19 60 1 86 -8 10 -12 29 -9 41 3 15 -3 30 -19 46 -12 13 -30 37 -38 53 -10 19 -25 30 -42 32 -15 2 -32 10 -38 18 -18 20 -57 17 -81 -7z m71 -14 c7 -8 23 -15 35 -15 34 0 48 -22 34 -54 -10 -20 -19 -26 -46 -26 -34 0 -44 -13 -17 -24 28 -11 47 -7 70 15 30 28 48 16 41 -28 -4 -24 -2 -36 8 -39 20 -8 28 -40 15 -64 -11 -20 -63 -28 -86 -12 -17 11 -36 51 -29 62 3 5 1 11 -5 15 -16 10 -24 -25 -12 -57 9 -24 8 -30 -8 -38 -21 -11 -33 -37 -24 -52 4 -6 16 2 28 17 20 25 26 27 64 20 23 -4 44 -10 47 -14 9 -15 -26 -51 -49 -51 -14 0 -30 -10 -40 -25 -18 -27 -54 -33 -74 -13 -17 17 -17 384 1 391 22 9 34 7 47 -8z" />
    </g>
</svg>
